<?xml version="1.0" encoding="UTF-8"?>
<svg width="24px" height="24px" viewBox="0 0 24 24" version="1.1" xmlns="http://www.w3.org/2000/svg" xmlns:xlink="http://www.w3.org/1999/xlink">
    <title>icon/公共/发送</title>
    <g id="页面-1" stroke="none" stroke-width="1" fill="none" fill-rule="evenodd">
        <g id="AI助手" transform="translate(-1296, -844)" fill="#B1B4C5">
            <g id="icon/公共/发送" transform="translate(1297, 845)">
                <path d="M11,0 C17.0751322,0 22,4.92486775 22,11 C22,17.0751322 17.0751322,22 11,22 C4.92486775,22 0,17.0751322 0,11 C0,4.92486775 4.92486775,0 11,0 Z M11.1090314,5 L10.9765025,5 C10.7405979,5.01386477 10.5086691,5.11091814 10.3284271,5.29116012 L6.79289322,8.82669403 C6.40236893,9.21721832 6.40236893,9.8503833 6.79289322,10.2409076 C7.18341751,10.6314319 7.81658249,10.6314319 8.20710678,10.2409076 L10.085,8.362 L10.0857864,16 C10.0857864,16.5522847 10.5335017,17 11.0857864,17 C11.6380712,17 12.0857864,16.5522847 12.0857864,16 L12.085,8.448 L13.8784271,10.2409076 C14.2689514,10.6314319 14.9021164,10.6314319 15.2926407,10.2409076 C15.683165,9.8503833 15.683165,9.21721832 15.2926407,8.82669403 L11.7571068,5.29116012 C11.5768648,5.11091814 11.344936,5.01386477 11.1090314,5 Z" id="形状结合"></path>
            </g>
        </g>
    </g>
</svg>