<?xml version="1.0" encoding="UTF-8"?>
<svg width="16px" height="16px" viewBox="0 0 16 16" version="1.1" xmlns="http://www.w3.org/2000/svg" xmlns:xlink="http://www.w3.org/1999/xlink">
    <title>icon/公共/网络</title>
    <g id="页面-1" stroke="none" stroke-width="1" fill="none" fill-rule="evenodd">
        <g id="AI助手" transform="translate(-1017, -764)" fill="#979797" fill-rule="nonzero">
            <g id="编组-2" transform="translate(1009, 760)">
                <g id="icon/公共/网络" transform="translate(10, 6)">
                    <path d="M6,0 C9.3137085,0 12,2.6862915 12,6 C12,9.3137085 9.3137085,12 6,12 C5.49361944,12 5.00189036,11.9372695 4.53215991,11.8191557 C1.92407812,11.1595253 0,8.80445892 0,6 C0,2.6862915 2.6862915,0 6,0 Z M7.94853664,6.50045288 L4.01087447,6.50045288 C4.08017032,8.08988923 4.4795799,9.60234587 5.17842566,10.9330449 C5.4455766,10.9770013 5.72010248,11 6,11 C6.26425108,11 6.52371428,10.9795007 6.77688613,10.9400055 C7.47863702,9.60686499 7.87913727,8.09226388 7.94853664,6.50045288 Z M10.9752426,6.50070198 L8.94941521,6.50029536 C8.89226806,7.92656294 8.59075541,9.30062323 8.06211345,10.5584583 C9.64942479,9.83752121 10.7952273,8.31121177 10.9752426,6.50070198 Z M3.88839132,10.5335467 L3.83762288,10.413588 C3.34594332,9.19541149 3.06495676,7.87199797 3.00999591,6.50029536 L1.02475737,6.50070198 C1.20283161,8.29168954 2.32597776,9.80457262 3.88839132,10.5335467 Z M6,1 C5.73922591,1 5.48311453,1.01996341 5.23311076,1.0584453 L5.39276888,0.770533582 C5.12302226,1.23924309 4.88983202,1.72828564 4.69556952,2.23364601 C4.29639398,3.27207341 4.06454921,4.37111793 4.01167727,5.50020163 L7.94773384,5.50020163 C7.8948619,4.37111793 7.66301714,3.27207341 7.26384159,2.23364601 C7.10829479,1.82900183 6.92779035,1.43481944 6.72354562,1.05316009 C6.48681902,1.01768974 6.24547534,1 6,1 Z M3.93803998,1.44373327 L3.77497501,1.52112709 C2.2715199,2.26945917 1.19808243,3.75251527 1.02465783,5.50030016 L3.01069753,5.49969006 C3.064351,4.24728229 3.31924359,3.02704938 3.76215779,1.8748389 C3.81788019,1.72988095 3.87652324,1.5861527 3.93803998,1.44373327 Z M8.01046088,1.42062856 L8.02964322,1.46293245 C8.08815015,1.59906694 8.14403382,1.73639207 8.19725332,1.8748389 C8.64016753,3.02704938 8.89506011,4.24728229 8.94871359,5.49969006 L10.9753422,5.50030016 C10.793775,3.67045397 9.62569684,2.13077902 8.01046088,1.42062856 Z" id="形状结合"></path>
                </g>
            </g>
        </g>
    </g>
</svg>